[size=5][color=orange]The Class (2008 ) DVDRip [XViD][ENG Dubbed] DarkNova[/size][/color]

[img]http://upit.cc/i/e2ece58f.jpg[/img] :love

[img]http://img80.imageshack.us/img80/6636/dmoviinfo.png[/img]

François is a tough but fair teacher working in one of France's toughest schools, and his honest demeanor in the classroom has made him a great success with the students. But this year things are different, because when the students begin to challenge his methods François will find his classroom ethics put to the ultimate test. François Bégaudeau stars in director Laurent Cantet's entry into the 2008 Cannes Film Festival.

PG-13, 2 hr. 8 min.

Art House & International, Drama

Directed By: Laurent Cantet

Written By: Laurent Cantet, François Bégaudeau, Robin Campillo

In Theaters: May 24, 2008 Wide

On DVD: Aug 11, 2009

US Box Office:$3.6M

Sony Pictures Classics

[img]http://img210.imageshack.us/img210/7084/dfilenfo.png[/img]

Complete name                            : The Class (2008 ) DvdRip [Xvid] DarkNova.avi
Format                                   : AVI
Format/Info                              : Audio Video Interleave
File size                                : 794 MiB
Duration                                 : 2h 9mn
Overall bit rate mode                    : Variable
Overall bit rate                         : 856 Kbps
Writing application                      : VirtualDubMod 1.5.10.2 (build 2542/release)
Writing library                          : VirtualDubMod build 2542/release

Video
ID                                       : 0
Format                                   : MPEG-4 Visual
Format profile                           : Advanced Simple@L5
Format settings, BVOP                    : 1
Format settings, QPel                    : No
Format settings, GMC                     : No warppoints
Format settings, Matrix                  : Default (H.263)
Muxing mode                              : Packed bitstream
Codec ID                                 : XVID
Codec ID/Hint                            : XviD
Duration                                 : 2h 9mn
Bit rate                                 : 748 Kbps
Width                                    : 640 pixels
Height                                   : 256 pixels
Display aspect ratio                     : 2.500
Frame rate                               : 23.976 fps
Color space                              : YUV
Chroma subsampling                       : 4:2:0
Bit depth                                : 8 bits
Scan type                                : Progressive
Compression mode                         : Lossy
Bits/(Pixel*Frame)                       : 0.190
Stream size                              : 693 MiB (87%)
Writing library                          : XviD 64

Audio
ID                                       : 1
Format                                   : MPEG Audio
Format version                           : Version 1
Format profile                           : Layer 3
Mode                                     : Joint stereo
Mode extension                           : MS Stereo
Codec ID                                 : 55
Codec ID/Hint                            : MP3
Duration                                 : 2h 9mn
Bit rate mode                            : Variable
Bit rate                                 : 95.6 Kbps
Nominal bit rate                         : 112 Kbps
Channel(s)                               : 2 channels
Sampling rate                            : 48.0 KHz
Compression mode                         : Lossy
Stream size                              : 88.7 MiB (11%)
Alignment                                : Aligned on interleaves
Interleave, duration                     : 24 ms (0.58 video frame)
Interleave, preload duration             : 192 ms
Writing library                          : LAME3.98r
Encoding settings                        : -m j -V 4 -q 2 -lowpass 16 --abr 112

[img]http://img844.imageshack.us/img844/8345/dscreen.png[/img]

[img]http://upit.cc/i/ea5c342c.jpg[/img]

 :love The best SeedBox experience ever [url=http://www.admin-hosting.com/securex/aff.php?aff=064] dentoo SeedBoxes[/url]  :love
